<?xml version="1.0" encoding="UTF-8" standalone="no"?>
<!-- Generator: Adobe Illustrator 19.0.0, SVG Export Plug-In . SVG Version: 6.00 Build 0)  -->

<svg
   xmlns:dc="http://purl.org/dc/elements/1.1/"
   xmlns:cc="http://creativecommons.org/ns#"
   xmlns:rdf="http://www.w3.org/1999/02/22-rdf-syntax-ns#"
   xmlns:svg="http://www.w3.org/2000/svg"
   xmlns="http://www.w3.org/2000/svg"
   xmlns:sodipodi="http://sodipodi.sourceforge.net/DTD/sodipodi-0.dtd"
   xmlns:inkscape="http://www.inkscape.org/namespaces/inkscape"
   version="1.1"
   id="Layer_1"
   x="0px"
   y="0px"
   viewBox="0 0 300 300"
   style="enable-background:new 0 0 300 300;"
   xml:space="preserve"
   sodipodi:docname="scanner-icon.svg"
   inkscape:version="0.92.2 5c3e80d, 2017-08-06"><metadata
     id="metadata3821"><rdf:RDF><cc:Work
         rdf:about=""><dc:format>image/svg+xml</dc:format><dc:type
           rdf:resource="http://purl.org/dc/dcmitype/StillImage" /></cc:Work></rdf:RDF></metadata><defs
     id="defs3819" /><sodipodi:namedview
     pagecolor="#ffffff"
     bordercolor="#666666"
     borderopacity="1"
     objecttolerance="10"
     gridtolerance="10"
     guidetolerance="10"
     inkscape:pageopacity="0"
     inkscape:pageshadow="2"
     inkscape:window-width="1378"
     inkscape:window-height="848"
     id="namedview3817"
     showgrid="false"
     inkscape:zoom="2.1166808"
     inkscape:cx="150.50334"
     inkscape:cy="150"
     inkscape:window-x="0"
     inkscape:window-y="0"
     inkscape:window-maximized="0"
     inkscape:current-layer="Layer_1" /><g
     id="g3786" /><g
     id="g3788" /><g
     id="g3790" /><g
     id="g3792" /><g
     id="g3794" /><g
     id="g3796" /><g
     id="g3798" /><g
     id="g3800" /><g
     id="g3802" /><g
     id="g3804" /><g
     id="g3806" /><g
     id="g3808" /><g
     id="g3810" /><g
     id="g3812" /><g
     id="g3814" /><rect
     id="rect32"
     width="23.657719"
     height="27.181208"
     x="1.5100671"
     y="271.30872" /><rect
     y="-4.4597427e-06"
     x="277.349"
     height="27.181208"
     width="23.657719"
     id="rect33" /><g
     transform="rotate(-90,150.25167,149.74833)"
     id="g39"><g
       id="g37"><path
         inkscape:connector-curvature="0"
         id="path35"
         d="M 149.996,0 C 67.157,0 0.001,67.161 0.001,149.997 0.001,232.833 67.157,300 149.996,300 232.835,300 299.999,232.837 299.999,149.997 299.999,67.157 232.835,0 149.996,0 Z M 63.928,106.078 H 194.79 V 121.64 H 63.928 Z m 0,71.629 H 194.79 v 15.562 H 63.928 Z m 172.144,51.374 H 63.928 v -15.562 h 172.144 z m 0,-71.627 H 63.928 v -15.562 h 172.144 z m 0,-71.627 H 63.928 V 70.265 h 172.144 z" /></g></g><ellipse
     id="path41"
     cx="149.99901"
     cy="150.23723"
     rx="149.99902"
     ry="150.23521"
     style="stroke-width:1.16643965" /><ellipse
     id="path43"
     cx="130.86526"
     cy="111.02488"
     rx="14.645572"
     ry="32.125771" /></svg>